<svg xmlns="http://www.w3.org/2000/svg" version="1.1" xmlns:xlink="http://www.w3.org/1999/xlink" xmlns:svgjs="http://svgjs.dev/svgjs" width="1440" height="560" preserveAspectRatio="none" viewBox="0 0 1440 560"><g mask="url(&quot;#SvgjsMask1023&quot;)" fill="none"><rect width="1440" height="560" x="0" y="0" fill="rgba(224, 255, 191, 1)"></rect><path d="M1536 560L0 560 L0 299.28Q37.3 264.58, 72 301.88Q144.76 302.64, 144 375.4Q136.95 296.35, 216 289.29Q279.61 232.9, 336 296.52Q386.37 274.88, 408 325.25Q460.31 305.56, 480 357.87Q490.94 296.81, 552 307.75Q596.38 280.13, 624 324.51Q682.3 310.81, 696 369.12Q715.17 316.29, 768 335.46Q797.13 292.59, 840 321.72Q888.89 250.62, 960 299.51Q989.52 257.03, 1032 286.55Q1093.98 276.53, 1104 338.52Q1126.9 289.42, 1176 312.32Q1262.1 278.41, 1296 364.51Q1344.7 293.22, 1416 341.92Q1469.07 274.99, 1536 328.05z" fill="rgba(62, 152, 19, 1)"></path><path d="M1512 560L0 560 L0 375.16Q52.65 355.81, 72 408.46Q145.21 361.67, 192 434.88Q204.23 375.11, 264 387.34Q306.57 357.91, 336 400.49Q380.78 373.27, 408 418.06Q474.23 364.29, 528 430.53Q560.1 342.63, 648 374.73Q727.14 333.88, 768 413.02Q775.39 348.41, 840 355.81Q882.1 325.91, 912 368.01Q976.61 360.62, 984 425.22Q1022.65 343.87, 1104 382.52Q1127.69 334.21, 1176 357.9Q1233.03 342.92, 1248 399.95Q1277.29 357.24, 1320 386.52Q1344.2 338.73, 1392 362.93Q1479.99 330.93, 1512 418.92z" fill="rgba(78, 182, 47, 1)"></path><path d="M1488 560L0 560 L0 444.3Q61.14 433.44, 72 494.59Q116.33 418.92, 192 463.25Q249.11 448.36, 264 505.47Q293.05 462.52, 336 491.58Q363.87 399.44, 456 427.31Q504.55 403.86, 528 452.4Q588.94 441.34, 600 502.28Q621.41 451.69, 672 473.1Q691.78 420.88, 744 440.66Q810.47 387.13, 864 453.61Q909.36 426.97, 936 472.32Q975.16 391.49, 1056 430.65Q1127.7 382.36, 1176 454.06Q1244.84 402.89, 1296 471.73Q1331.02 386.75, 1416 421.78Q1467.1 400.88, 1488 451.98z" fill="rgba(37, 215, 39, 1)"></path><path d="M1488 560L0 560 L0 514.94Q96.27 491.21, 120 587.48Q137.93 485.41, 240 503.35Q308.69 452.04, 360 520.73Q411.58 500.31, 432 551.89Q463.71 463.6, 552 495.3Q602.69 473.99, 624 524.68Q710.83 491.5, 744 578.33Q784.46 498.79, 864 539.25Q876.96 480.21, 936 493.16Q978.11 463.26, 1008 505.37Q1103.11 480.48, 1128 575.58Q1146.59 474.16, 1248 492.75Q1318.56 443.31, 1368 513.87Q1438.57 464.44, 1488 535.01z" fill="white"></path></g><defs><mask id="SvgjsMask1023"><rect width="1440" height="560" fill="#ffffff"></rect></mask></defs></svg>