<svg xmlns="http://www.w3.org/2000/svg" version="1.1" xmlns:xlink="http://www.w3.org/1999/xlink" xmlns:svgjs="http://svgjs.dev/svgjs" width="1900" height="900" preserveAspectRatio="none" viewBox="0 0 1900 900"><g mask="url(&quot;#SvgjsMask1018&quot;)" fill="none"><rect width="1900" height="900" x="0" y="0" fill="rgba(192, 255, 210, 1)"></rect><path d="M11.61 -5.24L76.56 32.26L76.56 107.26L11.61 144.76L-53.34 107.26L-53.34 32.26zM76.56 332.26L141.52 369.76L141.52 444.76L76.56 482.26L11.61 444.76L11.61 369.76zM76.56 557.26L141.52 594.76L141.52 669.76L76.56 707.26L11.61 669.76L11.61 594.76zM11.61 669.76L76.56 707.26L76.56 782.26L11.61 819.76L-53.34 782.26L-53.34 707.26zM76.56 782.26L141.52 819.76L141.52 894.76L76.56 932.26L11.61 894.76L11.61 819.76zM141.52 219.76L206.47 257.26L206.47 332.26L141.52 369.76L76.56 332.26L76.56 257.26zM206.47 332.26L271.43 369.76L271.43 444.76L206.47 482.26L141.52 444.76L141.52 369.76zM141.52 669.76L206.47 707.26L206.47 782.26L141.52 819.76L76.56 782.26L76.56 707.26zM206.47 782.26L271.43 819.76L271.43 894.76L206.47 932.26L141.52 894.76L141.52 819.76zM271.43 219.76L336.38 257.26L336.38 332.26L271.43 369.76L206.47 332.26L206.47 257.26zM336.38 332.26L401.33 369.76L401.33 444.76L336.38 482.26L271.43 444.76L271.43 369.76zM336.38 557.26L401.33 594.76L401.33 669.76L336.38 707.26L271.43 669.76L271.43 594.76zM271.43 669.76L336.38 707.26L336.38 782.26L271.43 819.76L206.47 782.26L206.47 707.26zM466.29 107.26L531.24 144.76L531.24 219.76L466.29 257.26L401.33 219.76L401.33 144.76zM401.33 219.76L466.29 257.26L466.29 332.26L401.33 369.76L336.38 332.26L336.38 257.26zM466.29 332.26L531.24 369.76L531.24 444.76L466.29 482.26L401.33 444.76L401.33 369.76zM401.33 669.76L466.29 707.26L466.29 782.26L401.33 819.76L336.38 782.26L336.38 707.26zM401.33 894.76L466.29 932.26L466.29 1007.26L401.33 1044.76L336.38 1007.26L336.38 932.26zM531.24 219.76L596.19 257.26L596.19 332.26L531.24 369.76L466.29 332.26L466.29 257.26zM596.19 332.26L661.15 369.76L661.15 444.76L596.19 482.26L531.24 444.76L531.24 369.76zM531.24 669.76L596.19 707.26L596.19 782.26L531.24 819.76L466.29 782.26L466.29 707.26zM596.19 782.26L661.15 819.76L661.15 894.76L596.19 932.26L531.24 894.76L531.24 819.76zM726.1 107.26L791.06 144.76L791.06 219.76L726.1 257.26L661.15 219.76L661.15 144.76zM726.1 332.26L791.06 369.76L791.06 444.76L726.1 482.26L661.15 444.76L661.15 369.76zM661.15 669.76L726.1 707.26L726.1 782.26L661.15 819.76L596.19 782.26L596.19 707.26zM661.15 894.76L726.1 932.26L726.1 1007.26L661.15 1044.76L596.19 1007.26L596.19 932.26zM856.01 107.26L920.96 144.76L920.96 219.76L856.01 257.26L791.05 219.76L791.05 144.76zM791.05 219.76L856.01 257.26L856.01 332.26L791.05 369.76L726.1 332.26L726.1 257.26zM791.05 444.76L856.01 482.26L856.01 557.26L791.05 594.76L726.1 557.26L726.1 482.26zM856.01 557.26L920.96 594.76L920.96 669.76L856.01 707.26L791.05 669.76L791.05 594.76zM985.92 107.26L1050.87 144.76L1050.87 219.76L985.92 257.26L920.96 219.76L920.96 144.76zM920.96 219.76L985.92 257.26L985.92 332.26L920.96 369.76L856.01 332.26L856.01 257.26zM920.96 669.76L985.92 707.26L985.92 782.26L920.96 819.76L856.01 782.26L856.01 707.26zM985.92 782.26L1050.87 819.76L1050.87 894.76L985.92 932.26L920.96 894.76L920.96 819.76zM1115.82 107.26L1180.78 144.76L1180.78 219.76L1115.82 257.26L1050.87 219.76L1050.87 144.76zM1050.87 669.76L1115.82 707.26L1115.82 782.26L1050.87 819.76L985.92 782.26L985.92 707.26zM1115.82 782.26L1180.78 819.76L1180.78 894.76L1115.82 932.26L1050.87 894.76L1050.87 819.76zM1180.78 -5.24L1245.73 32.26L1245.73 107.26L1180.78 144.76L1115.82 107.26L1115.82 32.26zM1245.73 782.26L1310.68 819.76L1310.68 894.76L1245.73 932.26L1180.78 894.76L1180.78 819.76zM1310.68 -5.24L1375.64 32.26L1375.64 107.26L1310.68 144.76L1245.73 107.26L1245.73 32.26zM1375.64 332.26L1440.59 369.76L1440.59 444.76L1375.64 482.26L1310.68 444.76L1310.68 369.76zM1440.59 -5.24L1505.55 32.26L1505.55 107.26L1440.59 144.76L1375.64 107.26L1375.64 32.26zM1505.55 332.26L1570.5 369.76L1570.5 444.76L1505.55 482.26L1440.59 444.76L1440.59 369.76zM1505.55 557.26L1570.5 594.76L1570.5 669.76L1505.55 707.26L1440.59 669.76L1440.59 594.76zM1440.59 669.76L1505.55 707.26L1505.55 782.26L1440.59 819.76L1375.64 782.26L1375.64 707.26zM1440.59 894.76L1505.55 932.26L1505.55 1007.26L1440.59 1044.76L1375.64 1007.26L1375.64 932.26zM1570.5 -5.24L1635.45 32.26L1635.45 107.26L1570.5 144.76L1505.55 107.26L1505.55 32.26zM1635.45 107.26L1700.41 144.76L1700.41 219.76L1635.45 257.26L1570.5 219.76L1570.5 144.76zM1635.45 557.26L1700.41 594.76L1700.41 669.76L1635.45 707.26L1570.5 669.76L1570.5 594.76zM1570.5 669.76L1635.45 707.26L1635.45 782.26L1570.5 819.76L1505.55 782.26L1505.55 707.26zM1635.45 782.26L1700.41 819.76L1700.41 894.76L1635.45 932.26L1570.5 894.76L1570.5 819.76zM1700.41 -5.24L1765.36 32.26L1765.36 107.26L1700.41 144.76L1635.45 107.26L1635.45 32.26zM1765.36 332.26L1830.31 369.76L1830.31 444.76L1765.36 482.26L1700.41 444.76L1700.41 369.76zM1700.41 444.76L1765.36 482.26L1765.36 557.26L1700.41 594.76L1635.45 557.26L1635.45 482.26zM1765.36 782.26L1830.31 819.76L1830.31 894.76L1765.36 932.26L1700.41 894.76L1700.41 819.76zM1700.41 894.76L1765.36 932.26L1765.36 1007.26L1700.41 1044.76L1635.45 1007.26L1635.45 932.26zM1830.31 -5.24L1895.27 32.26L1895.27 107.26L1830.31 144.76L1765.36 107.26L1765.36 32.26zM1830.31 669.76L1895.27 707.26L1895.27 782.26L1830.31 819.76L1765.36 782.26L1765.36 707.26z" stroke="rgba(152, 198, 244, 1)" stroke-width="2"></path><path d="M4.11 -5.24 a7.5 7.5 0 1 0 15 0 a7.5 7.5 0 1 0 -15 0zM69.06 32.26 a7.5 7.5 0 1 0 15 0 a7.5 7.5 0 1 0 -15 0zM69.06 107.26 a7.5 7.5 0 1 0 15 0 a7.5 7.5 0 1 0 -15 0zM4.11 144.76 a7.5 7.5 0 1 0 15 0 a7.5 7.5 0 1 0 -15 0zM-60.84 107.26 a7.5 7.5 0 1 0 15 0 a7.5 7.5 0 1 0 -15 0zM-60.84 32.26 a7.5 7.5 0 1 0 15 0 a7.5 7.5 0 1 0 -15 0zM69.06 332.26 a7.5 7.5 0 1 0 15 0 a7.5 7.5 0 1 0 -15 0zM134.02 369.76 a7.5 7.5 0 1 0 15 0 a7.5 7.5 0 1 0 -15 0zM134.02 444.76 a7.5 7.5 0 1 0 15 0 a7.5 7.5 0 1 0 -15 0zM69.06 482.26 a7.5 7.5 0 1 0 15 0 a7.5 7.5 0 1 0 -15 0zM4.11 444.76 a7.5 7.5 0 1 0 15 0 a7.5 7.5 0 1 0 -15 0zM4.11 369.76 a7.5 7.5 0 1 0 15 0 a7.5 7.5 0 1 0 -15 0zM69.06 557.26 a7.5 7.5 0 1 0 15 0 a7.5 7.5 0 1 0 -15 0zM134.02 594.76 a7.5 7.5 0 1 0 15 0 a7.5 7.5 0 1 0 -15 0zM134.02 669.76 a7.5 7.5 0 1 0 15 0 a7.5 7.5 0 1 0 -15 0zM69.06 707.26 a7.5 7.5 0 1 0 15 0 a7.5 7.5 0 1 0 -15 0zM4.11 669.76 a7.5 7.5 0 1 0 15 0 a7.5 7.5 0 1 0 -15 0zM4.11 594.76 a7.5 7.5 0 1 0 15 0 a7.5 7.5 0 1 0 -15 0zM69.06 782.26 a7.5 7.5 0 1 0 15 0 a7.5 7.5 0 1 0 -15 0zM4.11 819.76 a7.5 7.5 0 1 0 15 0 a7.5 7.5 0 1 0 -15 0zM-60.84 782.26 a7.5 7.5 0 1 0 15 0 a7.5 7.5 0 1 0 -15 0zM-60.84 707.26 a7.5 7.5 0 1 0 15 0 a7.5 7.5 0 1 0 -15 0zM134.02 819.76 a7.5 7.5 0 1 0 15 0 a7.5 7.5 0 1 0 -15 0zM134.02 894.76 a7.5 7.5 0 1 0 15 0 a7.5 7.5 0 1 0 -15 0zM69.06 932.26 a7.5 7.5 0 1 0 15 0 a7.5 7.5 0 1 0 -15 0zM4.11 894.76 a7.5 7.5 0 1 0 15 0 a7.5 7.5 0 1 0 -15 0zM134.02 219.76 a7.5 7.5 0 1 0 15 0 a7.5 7.5 0 1 0 -15 0zM198.97 257.26 a7.5 7.5 0 1 0 15 0 a7.5 7.5 0 1 0 -15 0zM198.97 332.26 a7.5 7.5 0 1 0 15 0 a7.5 7.5 0 1 0 -15 0zM69.06 257.26 a7.5 7.5 0 1 0 15 0 a7.5 7.5 0 1 0 -15 0zM263.93 369.76 a7.5 7.5 0 1 0 15 0 a7.5 7.5 0 1 0 -15 0zM263.93 444.76 a7.5 7.5 0 1 0 15 0 a7.5 7.5 0 1 0 -15 0zM198.97 482.26 a7.5 7.5 0 1 0 15 0 a7.5 7.5 0 1 0 -15 0zM198.97 707.26 a7.5 7.5 0 1 0 15 0 a7.5 7.5 0 1 0 -15 0zM198.97 782.26 a7.5 7.5 0 1 0 15 0 a7.5 7.5 0 1 0 -15 0zM263.93 819.76 a7.5 7.5 0 1 0 15 0 a7.5 7.5 0 1 0 -15 0zM263.93 894.76 a7.5 7.5 0 1 0 15 0 a7.5 7.5 0 1 0 -15 0zM198.97 932.26 a7.5 7.5 0 1 0 15 0 a7.5 7.5 0 1 0 -15 0zM263.93 219.76 a7.5 7.5 0 1 0 15 0 a7.5 7.5 0 1 0 -15 0zM328.88 257.26 a7.5 7.5 0 1 0 15 0 a7.5 7.5 0 1 0 -15 0zM328.88 332.26 a7.5 7.5 0 1 0 15 0 a7.5 7.5 0 1 0 -15 0zM393.83 369.76 a7.5 7.5 0 1 0 15 0 a7.5 7.5 0 1 0 -15 0zM393.83 444.76 a7.5 7.5 0 1 0 15 0 a7.5 7.5 0 1 0 -15 0zM328.88 482.26 a7.5 7.5 0 1 0 15 0 a7.5 7.5 0 1 0 -15 0zM328.88 557.26 a7.5 7.5 0 1 0 15 0 a7.5 7.5 0 1 0 -15 0zM393.83 594.76 a7.5 7.5 0 1 0 15 0 a7.5 7.5 0 1 0 -15 0zM393.83 669.76 a7.5 7.5 0 1 0 15 0 a7.5 7.5 0 1 0 -15 0zM328.88 707.26 a7.5 7.5 0 1 0 15 0 a7.5 7.5 0 1 0 -15 0zM263.93 669.76 a7.5 7.5 0 1 0 15 0 a7.5 7.5 0 1 0 -15 0zM263.93 594.76 a7.5 7.5 0 1 0 15 0 a7.5 7.5 0 1 0 -15 0zM328.88 782.26 a7.5 7.5 0 1 0 15 0 a7.5 7.5 0 1 0 -15 0zM458.79 107.26 a7.5 7.5 0 1 0 15 0 a7.5 7.5 0 1 0 -15 0zM523.74 144.76 a7.5 7.5 0 1 0 15 0 a7.5 7.5 0 1 0 -15 0zM523.74 219.76 a7.5 7.5 0 1 0 15 0 a7.5 7.5 0 1 0 -15 0zM458.79 257.26 a7.5 7.5 0 1 0 15 0 a7.5 7.5 0 1 0 -15 0zM393.83 219.76 a7.5 7.5 0 1 0 15 0 a7.5 7.5 0 1 0 -15 0zM393.83 144.76 a7.5 7.5 0 1 0 15 0 a7.5 7.5 0 1 0 -15 0zM458.79 332.26 a7.5 7.5 0 1 0 15 0 a7.5 7.5 0 1 0 -15 0zM523.74 369.76 a7.5 7.5 0 1 0 15 0 a7.5 7.5 0 1 0 -15 0zM523.74 444.76 a7.5 7.5 0 1 0 15 0 a7.5 7.5 0 1 0 -15 0zM458.79 482.26 a7.5 7.5 0 1 0 15 0 a7.5 7.5 0 1 0 -15 0zM458.79 707.26 a7.5 7.5 0 1 0 15 0 a7.5 7.5 0 1 0 -15 0zM458.79 782.26 a7.5 7.5 0 1 0 15 0 a7.5 7.5 0 1 0 -15 0zM393.83 819.76 a7.5 7.5 0 1 0 15 0 a7.5 7.5 0 1 0 -15 0zM393.83 894.76 a7.5 7.5 0 1 0 15 0 a7.5 7.5 0 1 0 -15 0zM458.79 932.26 a7.5 7.5 0 1 0 15 0 a7.5 7.5 0 1 0 -15 0zM458.79 1007.26 a7.5 7.5 0 1 0 15 0 a7.5 7.5 0 1 0 -15 0zM393.83 1044.76 a7.5 7.5 0 1 0 15 0 a7.5 7.5 0 1 0 -15 0zM328.88 1007.26 a7.5 7.5 0 1 0 15 0 a7.5 7.5 0 1 0 -15 0zM328.88 932.26 a7.5 7.5 0 1 0 15 0 a7.5 7.5 0 1 0 -15 0zM588.69 257.26 a7.5 7.5 0 1 0 15 0 a7.5 7.5 0 1 0 -15 0zM588.69 332.26 a7.5 7.5 0 1 0 15 0 a7.5 7.5 0 1 0 -15 0zM653.65 369.76 a7.5 7.5 0 1 0 15 0 a7.5 7.5 0 1 0 -15 0zM653.65 444.76 a7.5 7.5 0 1 0 15 0 a7.5 7.5 0 1 0 -15 0zM588.69 482.26 a7.5 7.5 0 1 0 15 0 a7.5 7.5 0 1 0 -15 0zM523.74 669.76 a7.5 7.5 0 1 0 15 0 a7.5 7.5 0 1 0 -15 0zM588.69 707.26 a7.5 7.5 0 1 0 15 0 a7.5 7.5 0 1 0 -15 0zM588.69 782.26 a7.5 7.5 0 1 0 15 0 a7.5 7.5 0 1 0 -15 0zM523.74 819.76 a7.5 7.5 0 1 0 15 0 a7.5 7.5 0 1 0 -15 0zM653.65 819.76 a7.5 7.5 0 1 0 15 0 a7.5 7.5 0 1 0 -15 0zM653.65 894.76 a7.5 7.5 0 1 0 15 0 a7.5 7.5 0 1 0 -15 0zM588.69 932.26 a7.5 7.5 0 1 0 15 0 a7.5 7.5 0 1 0 -15 0zM523.74 894.76 a7.5 7.5 0 1 0 15 0 a7.5 7.5 0 1 0 -15 0zM718.6 107.26 a7.5 7.5 0 1 0 15 0 a7.5 7.5 0 1 0 -15 0zM783.56 144.76 a7.5 7.5 0 1 0 15 0 a7.5 7.5 0 1 0 -15 0zM783.56 219.76 a7.5 7.5 0 1 0 15 0 a7.5 7.5 0 1 0 -15 0zM718.6 257.26 a7.5 7.5 0 1 0 15 0 a7.5 7.5 0 1 0 -15 0zM653.65 219.76 a7.5 7.5 0 1 0 15 0 a7.5 7.5 0 1 0 -15 0zM653.65 144.76 a7.5 7.5 0 1 0 15 0 a7.5 7.5 0 1 0 -15 0zM718.6 332.26 a7.5 7.5 0 1 0 15 0 a7.5 7.5 0 1 0 -15 0zM783.56 369.76 a7.5 7.5 0 1 0 15 0 a7.5 7.5 0 1 0 -15 0zM783.56 444.76 a7.5 7.5 0 1 0 15 0 a7.5 7.5 0 1 0 -15 0zM718.6 482.26 a7.5 7.5 0 1 0 15 0 a7.5 7.5 0 1 0 -15 0zM653.65 669.76 a7.5 7.5 0 1 0 15 0 a7.5 7.5 0 1 0 -15 0zM718.6 707.26 a7.5 7.5 0 1 0 15 0 a7.5 7.5 0 1 0 -15 0zM718.6 782.26 a7.5 7.5 0 1 0 15 0 a7.5 7.5 0 1 0 -15 0zM718.6 932.26 a7.5 7.5 0 1 0 15 0 a7.5 7.5 0 1 0 -15 0zM718.6 1007.26 a7.5 7.5 0 1 0 15 0 a7.5 7.5 0 1 0 -15 0zM653.65 1044.76 a7.5 7.5 0 1 0 15 0 a7.5 7.5 0 1 0 -15 0zM588.69 1007.26 a7.5 7.5 0 1 0 15 0 a7.5 7.5 0 1 0 -15 0zM848.51 107.26 a7.5 7.5 0 1 0 15 0 a7.5 7.5 0 1 0 -15 0zM913.46 144.76 a7.5 7.5 0 1 0 15 0 a7.5 7.5 0 1 0 -15 0zM913.46 219.76 a7.5 7.5 0 1 0 15 0 a7.5 7.5 0 1 0 -15 0zM848.51 257.26 a7.5 7.5 0 1 0 15 0 a7.5 7.5 0 1 0 -15 0zM783.55 219.76 a7.5 7.5 0 1 0 15 0 a7.5 7.5 0 1 0 -15 0zM783.55 144.76 a7.5 7.5 0 1 0 15 0 a7.5 7.5 0 1 0 -15 0zM848.51 332.26 a7.5 7.5 0 1 0 15 0 a7.5 7.5 0 1 0 -15 0zM783.55 369.76 a7.5 7.5 0 1 0 15 0 a7.5 7.5 0 1 0 -15 0zM783.55 444.76 a7.5 7.5 0 1 0 15 0 a7.5 7.5 0 1 0 -15 0zM848.51 482.26 a7.5 7.5 0 1 0 15 0 a7.5 7.5 0 1 0 -15 0zM848.51 557.26 a7.5 7.5 0 1 0 15 0 a7.5 7.5 0 1 0 -15 0zM783.55 594.76 a7.5 7.5 0 1 0 15 0 a7.5 7.5 0 1 0 -15 0zM718.6 557.26 a7.5 7.5 0 1 0 15 0 a7.5 7.5 0 1 0 -15 0zM913.46 594.76 a7.5 7.5 0 1 0 15 0 a7.5 7.5 0 1 0 -15 0zM913.46 669.76 a7.5 7.5 0 1 0 15 0 a7.5 7.5 0 1 0 -15 0zM848.51 707.26 a7.5 7.5 0 1 0 15 0 a7.5 7.5 0 1 0 -15 0zM783.55 669.76 a7.5 7.5 0 1 0 15 0 a7.5 7.5 0 1 0 -15 0zM978.42 107.26 a7.5 7.5 0 1 0 15 0 a7.5 7.5 0 1 0 -15 0zM1043.37 144.76 a7.5 7.5 0 1 0 15 0 a7.5 7.5 0 1 0 -15 0zM1043.37 219.76 a7.5 7.5 0 1 0 15 0 a7.5 7.5 0 1 0 -15 0zM978.42 257.26 a7.5 7.5 0 1 0 15 0 a7.5 7.5 0 1 0 -15 0zM978.42 332.26 a7.5 7.5 0 1 0 15 0 a7.5 7.5 0 1 0 -15 0zM913.46 369.76 a7.5 7.5 0 1 0 15 0 a7.5 7.5 0 1 0 -15 0zM978.42 707.26 a7.5 7.5 0 1 0 15 0 a7.5 7.5 0 1 0 -15 0zM978.42 782.26 a7.5 7.5 0 1 0 15 0 a7.5 7.5 0 1 0 -15 0zM913.46 819.76 a7.5 7.5 0 1 0 15 0 a7.5 7.5 0 1 0 -15 0zM848.51 782.26 a7.5 7.5 0 1 0 15 0 a7.5 7.5 0 1 0 -15 0zM1043.37 819.76 a7.5 7.5 0 1 0 15 0 a7.5 7.5 0 1 0 -15 0zM1043.37 894.76 a7.5 7.5 0 1 0 15 0 a7.5 7.5 0 1 0 -15 0zM978.42 932.26 a7.5 7.5 0 1 0 15 0 a7.5 7.5 0 1 0 -15 0zM913.46 894.76 a7.5 7.5 0 1 0 15 0 a7.5 7.5 0 1 0 -15 0zM1108.32 107.26 a7.5 7.5 0 1 0 15 0 a7.5 7.5 0 1 0 -15 0zM1173.28 144.76 a7.5 7.5 0 1 0 15 0 a7.5 7.5 0 1 0 -15 0zM1173.28 219.76 a7.5 7.5 0 1 0 15 0 a7.5 7.5 0 1 0 -15 0zM1108.32 257.26 a7.5 7.5 0 1 0 15 0 a7.5 7.5 0 1 0 -15 0zM1043.37 669.76 a7.5 7.5 0 1 0 15 0 a7.5 7.5 0 1 0 -15 0zM1108.32 707.26 a7.5 7.5 0 1 0 15 0 a7.5 7.5 0 1 0 -15 0zM1108.32 782.26 a7.5 7.5 0 1 0 15 0 a7.5 7.5 0 1 0 -15 0zM1173.28 819.76 a7.5 7.5 0 1 0 15 0 a7.5 7.5 0 1 0 -15 0zM1173.28 894.76 a7.5 7.5 0 1 0 15 0 a7.5 7.5 0 1 0 -15 0zM1108.32 932.26 a7.5 7.5 0 1 0 15 0 a7.5 7.5 0 1 0 -15 0zM1173.28 -5.24 a7.5 7.5 0 1 0 15 0 a7.5 7.5 0 1 0 -15 0zM1238.23 32.26 a7.5 7.5 0 1 0 15 0 a7.5 7.5 0 1 0 -15 0zM1238.23 107.26 a7.5 7.5 0 1 0 15 0 a7.5 7.5 0 1 0 -15 0zM1108.32 32.26 a7.5 7.5 0 1 0 15 0 a7.5 7.5 0 1 0 -15 0zM1238.23 782.26 a7.5 7.5 0 1 0 15 0 a7.5 7.5 0 1 0 -15 0zM1303.18 819.76 a7.5 7.5 0 1 0 15 0 a7.5 7.5 0 1 0 -15 0zM1303.18 894.76 a7.5 7.5 0 1 0 15 0 a7.5 7.5 0 1 0 -15 0zM1238.23 932.26 a7.5 7.5 0 1 0 15 0 a7.5 7.5 0 1 0 -15 0zM1303.18 -5.24 a7.5 7.5 0 1 0 15 0 a7.5 7.5 0 1 0 -15 0zM1368.14 32.26 a7.5 7.5 0 1 0 15 0 a7.5 7.5 0 1 0 -15 0zM1368.14 107.26 a7.5 7.5 0 1 0 15 0 a7.5 7.5 0 1 0 -15 0zM1303.18 144.76 a7.5 7.5 0 1 0 15 0 a7.5 7.5 0 1 0 -15 0zM1368.14 332.26 a7.5 7.5 0 1 0 15 0 a7.5 7.5 0 1 0 -15 0zM1433.09 369.76 a7.5 7.5 0 1 0 15 0 a7.5 7.5 0 1 0 -15 0zM1433.09 444.76 a7.5 7.5 0 1 0 15 0 a7.5 7.5 0 1 0 -15 0zM1368.14 482.26 a7.5 7.5 0 1 0 15 0 a7.5 7.5 0 1 0 -15 0zM1303.18 444.76 a7.5 7.5 0 1 0 15 0 a7.5 7.5 0 1 0 -15 0zM1303.18 369.76 a7.5 7.5 0 1 0 15 0 a7.5 7.5 0 1 0 -15 0zM1433.09 -5.24 a7.5 7.5 0 1 0 15 0 a7.5 7.5 0 1 0 -15 0zM1498.05 32.26 a7.5 7.5 0 1 0 15 0 a7.5 7.5 0 1 0 -15 0zM1498.05 107.26 a7.5 7.5 0 1 0 15 0 a7.5 7.5 0 1 0 -15 0zM1433.09 144.76 a7.5 7.5 0 1 0 15 0 a7.5 7.5 0 1 0 -15 0zM1498.05 332.26 a7.5 7.5 0 1 0 15 0 a7.5 7.5 0 1 0 -15 0zM1563 369.76 a7.5 7.5 0 1 0 15 0 a7.5 7.5 0 1 0 -15 0zM1563 444.76 a7.5 7.5 0 1 0 15 0 a7.5 7.5 0 1 0 -15 0zM1498.05 482.26 a7.5 7.5 0 1 0 15 0 a7.5 7.5 0 1 0 -15 0zM1498.05 557.26 a7.5 7.5 0 1 0 15 0 a7.5 7.5 0 1 0 -15 0zM1563 594.76 a7.5 7.5 0 1 0 15 0 a7.5 7.5 0 1 0 -15 0zM1563 669.76 a7.5 7.5 0 1 0 15 0 a7.5 7.5 0 1 0 -15 0zM1498.05 707.26 a7.5 7.5 0 1 0 15 0 a7.5 7.5 0 1 0 -15 0zM1433.09 669.76 a7.5 7.5 0 1 0 15 0 a7.5 7.5 0 1 0 -15 0zM1433.09 594.76 a7.5 7.5 0 1 0 15 0 a7.5 7.5 0 1 0 -15 0zM1498.05 782.26 a7.5 7.5 0 1 0 15 0 a7.5 7.5 0 1 0 -15 0zM1433.09 819.76 a7.5 7.5 0 1 0 15 0 a7.5 7.5 0 1 0 -15 0zM1368.14 782.26 a7.5 7.5 0 1 0 15 0 a7.5 7.5 0 1 0 -15 0zM1368.14 707.26 a7.5 7.5 0 1 0 15 0 a7.5 7.5 0 1 0 -15 0zM1433.09 894.76 a7.5 7.5 0 1 0 15 0 a7.5 7.5 0 1 0 -15 0zM1498.05 932.26 a7.5 7.5 0 1 0 15 0 a7.5 7.5 0 1 0 -15 0zM1498.05 1007.26 a7.5 7.5 0 1 0 15 0 a7.5 7.5 0 1 0 -15 0zM1433.09 1044.76 a7.5 7.5 0 1 0 15 0 a7.5 7.5 0 1 0 -15 0zM1368.14 1007.26 a7.5 7.5 0 1 0 15 0 a7.5 7.5 0 1 0 -15 0zM1368.14 932.26 a7.5 7.5 0 1 0 15 0 a7.5 7.5 0 1 0 -15 0zM1563 -5.24 a7.5 7.5 0 1 0 15 0 a7.5 7.5 0 1 0 -15 0zM1627.95 32.26 a7.5 7.5 0 1 0 15 0 a7.5 7.5 0 1 0 -15 0zM1627.95 107.26 a7.5 7.5 0 1 0 15 0 a7.5 7.5 0 1 0 -15 0zM1563 144.76 a7.5 7.5 0 1 0 15 0 a7.5 7.5 0 1 0 -15 0zM1692.91 144.76 a7.5 7.5 0 1 0 15 0 a7.5 7.5 0 1 0 -15 0zM1692.91 219.76 a7.5 7.5 0 1 0 15 0 a7.5 7.5 0 1 0 -15 0zM1627.95 257.26 a7.5 7.5 0 1 0 15 0 a7.5 7.5 0 1 0 -15 0zM1563 219.76 a7.5 7.5 0 1 0 15 0 a7.5 7.5 0 1 0 -15 0zM1627.95 557.26 a7.5 7.5 0 1 0 15 0 a7.5 7.5 0 1 0 -15 0zM1692.91 594.76 a7.5 7.5 0 1 0 15 0 a7.5 7.5 0 1 0 -15 0zM1692.91 669.76 a7.5 7.5 0 1 0 15 0 a7.5 7.5 0 1 0 -15 0zM1627.95 707.26 a7.5 7.5 0 1 0 15 0 a7.5 7.5 0 1 0 -15 0zM1627.95 782.26 a7.5 7.5 0 1 0 15 0 a7.5 7.5 0 1 0 -15 0zM1563 819.76 a7.5 7.5 0 1 0 15 0 a7.5 7.5 0 1 0 -15 0zM1692.91 819.76 a7.5 7.5 0 1 0 15 0 a7.5 7.5 0 1 0 -15 0zM1692.91 894.76 a7.5 7.5 0 1 0 15 0 a7.5 7.5 0 1 0 -15 0zM1627.95 932.26 a7.5 7.5 0 1 0 15 0 a7.5 7.5 0 1 0 -15 0zM1563 894.76 a7.5 7.5 0 1 0 15 0 a7.5 7.5 0 1 0 -15 0zM1692.91 -5.24 a7.5 7.5 0 1 0 15 0 a7.5 7.5 0 1 0 -15 0zM1757.86 32.26 a7.5 7.5 0 1 0 15 0 a7.5 7.5 0 1 0 -15 0zM1757.86 107.26 a7.5 7.5 0 1 0 15 0 a7.5 7.5 0 1 0 -15 0zM1757.86 332.26 a7.5 7.5 0 1 0 15 0 a7.5 7.5 0 1 0 -15 0zM1822.81 369.76 a7.5 7.5 0 1 0 15 0 a7.5 7.5 0 1 0 -15 0zM1822.81 444.76 a7.5 7.5 0 1 0 15 0 a7.5 7.5 0 1 0 -15 0zM1757.86 482.26 a7.5 7.5 0 1 0 15 0 a7.5 7.5 0 1 0 -15 0zM1692.91 444.76 a7.5 7.5 0 1 0 15 0 a7.5 7.5 0 1 0 -15 0zM1692.91 369.76 a7.5 7.5 0 1 0 15 0 a7.5 7.5 0 1 0 -15 0zM1757.86 557.26 a7.5 7.5 0 1 0 15 0 a7.5 7.5 0 1 0 -15 0zM1627.95 482.26 a7.5 7.5 0 1 0 15 0 a7.5 7.5 0 1 0 -15 0zM1757.86 782.26 a7.5 7.5 0 1 0 15 0 a7.5 7.5 0 1 0 -15 0zM1822.81 819.76 a7.5 7.5 0 1 0 15 0 a7.5 7.5 0 1 0 -15 0zM1822.81 894.76 a7.5 7.5 0 1 0 15 0 a7.5 7.5 0 1 0 -15 0zM1757.86 932.26 a7.5 7.5 0 1 0 15 0 a7.5 7.5 0 1 0 -15 0zM1757.86 1007.26 a7.5 7.5 0 1 0 15 0 a7.5 7.5 0 1 0 -15 0zM1692.91 1044.76 a7.5 7.5 0 1 0 15 0 a7.5 7.5 0 1 0 -15 0zM1627.95 1007.26 a7.5 7.5 0 1 0 15 0 a7.5 7.5 0 1 0 -15 0zM1822.81 -5.24 a7.5 7.5 0 1 0 15 0 a7.5 7.5 0 1 0 -15 0zM1887.77 32.26 a7.5 7.5 0 1 0 15 0 a7.5 7.5 0 1 0 -15 0zM1887.77 107.26 a7.5 7.5 0 1 0 15 0 a7.5 7.5 0 1 0 -15 0zM1822.81 144.76 a7.5 7.5 0 1 0 15 0 a7.5 7.5 0 1 0 -15 0zM1822.81 669.76 a7.5 7.5 0 1 0 15 0 a7.5 7.5 0 1 0 -15 0zM1887.77 707.26 a7.5 7.5 0 1 0 15 0 a7.5 7.5 0 1 0 -15 0zM1887.77 782.26 a7.5 7.5 0 1 0 15 0 a7.5 7.5 0 1 0 -15 0zM1757.86 707.26 a7.5 7.5 0 1 0 15 0 a7.5 7.5 0 1 0 -15 0z" fill="rgba(152, 198, 244, 1)"></path><path d="M18.64 -40.38L61.94 -15.38L61.94 34.62L18.64 59.62L-24.66 34.62L-24.66 -15.38zM18.64 109.62L61.94 134.62L61.94 184.62L18.64 209.62L-24.66 184.62L-24.66 134.62zM61.94 484.62L105.25 509.62L105.25 559.62L61.94 584.62L18.64 559.62L18.64 509.62zM61.94 634.62L105.25 659.62L105.25 709.62L61.94 734.62L18.64 709.62L18.64 659.62zM61.94 784.62L105.25 809.62L105.25 859.62L61.94 884.62L18.64 859.62L18.64 809.62zM18.64 859.62L61.94 884.62L61.94 934.62L18.64 959.62L-24.66 934.62L-24.66 884.62zM105.25 -40.38L148.55 -15.38L148.55 34.62L105.25 59.62L61.94 34.62L61.94 -15.38zM105.25 559.62L148.55 584.62L148.55 634.62L105.25 659.62L61.94 634.62L61.94 584.62zM148.55 634.62L191.85 659.62L191.85 709.62L148.55 734.62L105.25 709.62L105.25 659.62zM148.55 784.62L191.85 809.62L191.85 859.62L148.55 884.62L105.25 859.62L105.25 809.62zM105.25 859.62L148.55 884.62L148.55 934.62L105.25 959.62L61.94 934.62L61.94 884.62zM191.85 -40.38L235.15 -15.38L235.15 34.62L191.85 59.62L148.55 34.62L148.55 -15.38zM191.85 109.62L235.15 134.62L235.15 184.62L191.85 209.62L148.55 184.62L148.55 134.62zM191.85 409.62L235.15 434.62L235.15 484.62L191.85 509.62L148.55 484.62L148.55 434.62zM191.85 559.62L235.15 584.62L235.15 634.62L191.85 659.62L148.55 634.62L148.55 584.62zM235.15 634.62L278.45 659.62L278.45 709.62L235.15 734.62L191.85 709.62L191.85 659.62zM321.76 34.62L365.06 59.62L365.06 109.62L321.76 134.62L278.45 109.62L278.45 59.62zM321.76 184.62L365.06 209.62L365.06 259.62L321.76 284.62L278.45 259.62L278.45 209.62zM321.76 334.62L365.06 359.62L365.06 409.62L321.76 434.62L278.45 409.62L278.45 359.62zM321.76 634.62L365.06 659.62L365.06 709.62L321.76 734.62L278.45 709.62L278.45 659.62zM321.76 784.62L365.06 809.62L365.06 859.62L321.76 884.62L278.45 859.62L278.45 809.62zM278.45 859.62L321.76 884.62L321.76 934.62L278.45 959.62L235.15 934.62L235.15 884.62zM408.36 34.62L451.67 59.62L451.67 109.62L408.36 134.62L365.06 109.62L365.06 59.62zM408.36 184.62L451.67 209.62L451.67 259.62L408.36 284.62L365.06 259.62L365.06 209.62zM365.06 259.62L408.36 284.62L408.36 334.62L365.06 359.62L321.76 334.62L321.76 284.62zM365.06 409.62L408.36 434.62L408.36 484.62L365.06 509.62L321.76 484.62L321.76 434.62zM365.06 559.62L408.36 584.62L408.36 634.62L365.06 659.62L321.76 634.62L321.76 584.62zM408.36 784.62L451.67 809.62L451.67 859.62L408.36 884.62L365.06 859.62L365.06 809.62zM451.67 -40.38L494.97 -15.38L494.97 34.62L451.67 59.62L408.36 34.62L408.36 -15.38zM494.97 34.62L538.27 59.62L538.27 109.62L494.97 134.62L451.67 109.62L451.67 59.62zM494.97 184.62L538.27 209.62L538.27 259.62L494.97 284.62L451.67 259.62L451.67 209.62zM494.97 634.62L538.27 659.62L538.27 709.62L494.97 734.62L451.67 709.62L451.67 659.62zM581.57 34.62L624.88 59.62L624.88 109.62L581.57 134.62L538.27 109.62L538.27 59.62zM581.57 184.62L624.88 209.62L624.88 259.62L581.57 284.62L538.27 259.62L538.27 209.62zM538.27 259.62L581.57 284.62L581.57 334.62L538.27 359.62L494.97 334.62L494.97 284.62zM538.27 409.62L581.57 434.62L581.57 484.62L538.27 509.62L494.97 484.62L494.97 434.62zM581.57 484.62L624.88 509.62L624.88 559.62L581.57 584.62L538.27 559.62L538.27 509.62zM538.27 559.62L581.57 584.62L581.57 634.62L538.27 659.62L494.97 634.62L494.97 584.62zM538.27 859.62L581.57 884.62L581.57 934.62L538.27 959.62L494.97 934.62L494.97 884.62zM624.88 -40.38L668.18 -15.38L668.18 34.62L624.88 59.62L581.57 34.62L581.57 -15.38zM624.88 109.62L668.18 134.62L668.18 184.62L624.88 209.62L581.57 184.62L581.57 134.62zM624.88 259.62L668.18 284.62L668.18 334.62L624.88 359.62L581.57 334.62L581.57 284.62zM668.18 634.62L711.48 659.62L711.48 709.62L668.18 734.62L624.88 709.62L624.88 659.62zM668.18 784.62L711.48 809.62L711.48 859.62L668.18 884.62L624.88 859.62L624.88 809.62zM624.88 859.62L668.18 884.62L668.18 934.62L624.88 959.62L581.57 934.62L581.57 884.62zM711.48 409.62L754.78 434.62L754.78 484.62L711.48 509.62L668.18 484.62L668.18 434.62zM754.78 784.62L798.09 809.62L798.09 859.62L754.78 884.62L711.48 859.62L711.48 809.62zM798.09 -40.38L841.39 -15.38L841.39 34.62L798.09 59.62L754.78 34.62L754.78 -15.38zM798.09 259.62L841.39 284.62L841.39 334.62L798.09 359.62L754.78 334.62L754.78 284.62zM798.09 409.62L841.39 434.62L841.39 484.62L798.09 509.62L754.78 484.62L754.78 434.62zM841.39 484.62L884.69 509.62L884.69 559.62L841.39 584.62L798.09 559.62L798.09 509.62zM884.69 109.62L927.99 134.62L927.99 184.62L884.69 209.62L841.39 184.62L841.39 134.62zM927.99 184.62L971.3 209.62L971.3 259.62L927.99 284.62L884.69 259.62L884.69 209.62zM884.69 259.62L927.99 284.62L927.99 334.62L884.69 359.62L841.39 334.62L841.39 284.62zM927.99 634.62L971.3 659.62L971.3 709.62L927.99 734.62L884.69 709.62L884.69 659.62zM971.3 109.62L1014.6 134.62L1014.6 184.62L971.3 209.62L927.99 184.62L927.99 134.62zM1014.6 184.62L1057.9 209.62L1057.9 259.62L1014.6 284.62L971.3 259.62L971.3 209.62zM971.3 259.62L1014.6 284.62L1014.6 334.62L971.3 359.62L927.99 334.62L927.99 284.62zM971.3 409.62L1014.6 434.62L1014.6 484.62L971.3 509.62L927.99 484.62L927.99 434.62zM1014.6 634.62L1057.9 659.62L1057.9 709.62L1014.6 734.62L971.3 709.62L971.3 659.62zM971.3 709.62L1014.6 734.62L1014.6 784.62L971.3 809.62L927.99 784.62L927.99 734.62zM1057.9 -40.38L1101.2 -15.38L1101.2 34.62L1057.9 59.62L1014.6 34.62L1014.6 -15.38zM1057.9 109.62L1101.2 134.62L1101.2 184.62L1057.9 209.62L1014.6 184.62L1014.6 134.62zM1101.2 184.62L1144.51 209.62L1144.51 259.62L1101.2 284.62L1057.9 259.62L1057.9 209.62zM1057.9 259.62L1101.2 284.62L1101.2 334.62L1057.9 359.62L1014.6 334.62L1014.6 284.62zM1101.2 484.62L1144.51 509.62L1144.51 559.62L1101.2 584.62L1057.9 559.62L1057.9 509.62zM1101.2 634.62L1144.51 659.62L1144.51 709.62L1101.2 734.62L1057.9 709.62L1057.9 659.62zM1144.51 -40.38L1187.81 -15.38L1187.81 34.62L1144.51 59.62L1101.2 34.62L1101.2 -15.38zM1144.51 109.62L1187.81 134.62L1187.81 184.62L1144.51 209.62L1101.2 184.62L1101.2 134.62zM1144.51 259.62L1187.81 284.62L1187.81 334.62L1144.51 359.62L1101.2 334.62L1101.2 284.62zM1187.81 334.62L1231.11 359.62L1231.11 409.62L1187.81 434.62L1144.51 409.62L1144.51 359.62zM1144.51 409.62L1187.81 434.62L1187.81 484.62L1144.51 509.62L1101.2 484.62L1101.2 434.62zM1274.41 34.62L1317.72 59.62L1317.72 109.62L1274.41 134.62L1231.11 109.62L1231.11 59.62zM1274.41 184.62L1317.72 209.62L1317.72 259.62L1274.41 284.62L1231.11 259.62L1231.11 209.62zM1274.41 334.62L1317.72 359.62L1317.72 409.62L1274.41 434.62L1231.11 409.62L1231.11 359.62zM1231.11 559.62L1274.41 584.62L1274.41 634.62L1231.11 659.62L1187.81 634.62L1187.81 584.62zM1274.41 784.62L1317.72 809.62L1317.72 859.62L1274.41 884.62L1231.11 859.62L1231.11 809.62zM1231.11 859.62L1274.41 884.62L1274.41 934.62L1231.11 959.62L1187.81 934.62L1187.81 884.62zM1317.72 -40.38L1361.02 -15.38L1361.02 34.62L1317.72 59.62L1274.41 34.62L1274.41 -15.38zM1361.02 484.62L1404.32 509.62L1404.32 559.62L1361.02 584.62L1317.72 559.62L1317.72 509.62zM1447.62 34.62L1490.93 59.62L1490.93 109.62L1447.62 134.62L1404.32 109.62L1404.32 59.62zM1447.62 334.62L1490.93 359.62L1490.93 409.62L1447.62 434.62L1404.32 409.62L1404.32 359.62zM1404.32 409.62L1447.62 434.62L1447.62 484.62L1404.32 509.62L1361.02 484.62L1361.02 434.62zM1404.32 559.62L1447.62 584.62L1447.62 634.62L1404.32 659.62L1361.02 634.62L1361.02 584.62zM1447.62 784.62L1490.93 809.62L1490.93 859.62L1447.62 884.62L1404.32 859.62L1404.32 809.62zM1404.32 859.62L1447.62 884.62L1447.62 934.62L1404.32 959.62L1361.02 934.62L1361.02 884.62zM1534.23 484.62L1577.53 509.62L1577.53 559.62L1534.23 584.62L1490.93 559.62L1490.93 509.62zM1490.93 559.62L1534.23 584.62L1534.23 634.62L1490.93 659.62L1447.62 634.62L1447.62 584.62zM1534.23 634.62L1577.53 659.62L1577.53 709.62L1534.23 734.62L1490.93 709.62L1490.93 659.62zM1490.93 709.62L1534.23 734.62L1534.23 784.62L1490.93 809.62L1447.62 784.62L1447.62 734.62zM1577.53 -40.38L1620.83 -15.38L1620.83 34.62L1577.53 59.62L1534.23 34.62L1534.23 -15.38zM1577.53 109.62L1620.83 134.62L1620.83 184.62L1577.53 209.62L1534.23 184.62L1534.23 134.62zM1620.83 184.62L1664.14 209.62L1664.14 259.62L1620.83 284.62L1577.53 259.62L1577.53 209.62zM1577.53 259.62L1620.83 284.62L1620.83 334.62L1577.53 359.62L1534.23 334.62L1534.23 284.62zM1620.83 334.62L1664.14 359.62L1664.14 409.62L1620.83 434.62L1577.53 409.62L1577.53 359.62zM1620.83 634.62L1664.14 659.62L1664.14 709.62L1620.83 734.62L1577.53 709.62L1577.53 659.62zM1577.53 709.62L1620.83 734.62L1620.83 784.62L1577.53 809.62L1534.23 784.62L1534.23 734.62zM1620.83 784.62L1664.14 809.62L1664.14 859.62L1620.83 884.62L1577.53 859.62L1577.53 809.62zM1577.53 859.62L1620.83 884.62L1620.83 934.62L1577.53 959.62L1534.23 934.62L1534.23 884.62zM1664.14 259.62L1707.44 284.62L1707.44 334.62L1664.14 359.62L1620.83 334.62L1620.83 284.62zM1707.44 334.62L1750.74 359.62L1750.74 409.62L1707.44 434.62L1664.14 409.62L1664.14 359.62zM1707.44 484.62L1750.74 509.62L1750.74 559.62L1707.44 584.62L1664.14 559.62L1664.14 509.62zM1664.14 559.62L1707.44 584.62L1707.44 634.62L1664.14 659.62L1620.83 634.62L1620.83 584.62zM1750.74 109.62L1794.04 134.62L1794.04 184.62L1750.74 209.62L1707.44 184.62L1707.44 134.62zM1794.04 184.62L1837.35 209.62L1837.35 259.62L1794.04 284.62L1750.74 259.62L1750.74 209.62zM1750.74 709.62L1794.04 734.62L1794.04 784.62L1750.74 809.62L1707.44 784.62L1707.44 734.62zM1794.04 784.62L1837.35 809.62L1837.35 859.62L1794.04 884.62L1750.74 859.62L1750.74 809.62zM1837.35 109.62L1880.65 134.62L1880.65 184.62L1837.35 209.62L1794.04 184.62L1794.04 134.62zM1880.65 184.62L1923.95 209.62L1923.95 259.62L1880.65 284.62L1837.35 259.62L1837.35 209.62zM1880.65 334.62L1923.95 359.62L1923.95 409.62L1880.65 434.62L1837.35 409.62L1837.35 359.62z" stroke="rgba(178, 215, 254, 0.93)" stroke-width="2"></path></g><defs><mask id="SvgjsMask1018"><rect width="1900" height="900" fill="#ffffff"></rect></mask></defs></svg>